<svg width="2722" height="773" xmlns="http://www.w3.org/2000/svg" xmlns:xlink="http://www.w3.org/1999/xlink" overflow="hidden"><defs><clipPath id="clip0"><rect x="331" y="903" width="2722" height="773"/></clipPath></defs><g clip-path="url(#clip0)" transform="translate(-331 -903)"><rect x="696.5" y="1146.5" width="364" height="235" stroke="#ED7D31" stroke-width="3.4375" stroke-miterlimit="8" fill="none"/><text font-family="Microsoft YaHei,Microsoft YaHei_MSFontService,sans-serif" font-weight="400" font-size="83" transform="matrix(1 0 0 1 753.932 1241)">模糊化<tspan font-size="83" x="41.25" y="99">接口</tspan></text><rect x="1449.5" y="1146.5" width="390" height="136" stroke="#ED7D31" stroke-width="3.4375" stroke-miterlimit="8" fill="none"/><text font-family="Microsoft YaHei,Microsoft YaHei_MSFontService,sans-serif" font-weight="400" font-size="83" transform="matrix(1 0 0 1 1520.21 1241)">推理机</text><rect x="2203.5" y="1120.5" width="389" height="235" stroke="#ED7D31" stroke-width="3.4375" stroke-miterlimit="8" fill="none"/><text font-family="Microsoft YaHei,Microsoft YaHei_MSFontService,sans-serif" font-weight="400" font-size="83" transform="matrix(1 0 0 1 2273.59 1216)">反模糊<tspan font-size="83" x="0" y="99">化接口</tspan></text><rect x="1449.5" y="1510.5" width="390" height="136" stroke="#ED7D31" stroke-width="3.4375" stroke-miterlimit="8" fill="none"/><text font-family="Microsoft YaHei,Microsoft YaHei_MSFontService,sans-serif" font-weight="400" font-size="83" transform="matrix(1 0 0 1 1520.21 1606)">规则库</text><path d="M332.5 1263.5 605.786 1263.5 605.786 1250.5 696.5 1276.5 605.786 1302.5 605.786 1289.5 332.5 1289.5Z" stroke="#000000" stroke-width="3.4375" stroke-miterlimit="8" fill="#5B9BD5" fill-rule="evenodd"/><path d="M1060.5 1185.5 1332.79 1185.5 1332.79 1172.5 1423.5 1198.5 1332.79 1224.5 1332.79 1211.5 1060.5 1211.5Z" stroke="#000000" stroke-width="3.4375" stroke-miterlimit="8" fill="#5B9BD5" fill-rule="evenodd"/><path d="M1839.5 1185.5 2112.79 1185.5 2112.79 1172.5 2203.5 1198.5 2112.79 1224.5 2112.79 1211.5 1839.5 1211.5Z" stroke="#000000" stroke-width="3.4375" stroke-miterlimit="8" fill="#5B9BD5" fill-rule="evenodd"/><path d="M1631.5 1335.58 1644.5 1276.5 1657.5 1335.58 1651 1335.58 1651 1510.5 1638 1510.5 1638 1335.58Z" stroke="#000000" stroke-width="3.4375" stroke-miterlimit="8" fill="#5B9BD5" fill-rule="evenodd"/><path d="M2593.5 1237.5 2866.79 1237.5 2866.79 1224.5 2957.5 1250.5 2866.79 1276.5 2866.79 1263.5 2593.5 1263.5Z" stroke="#000000" stroke-width="3.4375" stroke-miterlimit="8" fill="#5B9BD5" fill-rule="evenodd"/><text font-family="Microsoft YaHei,Microsoft YaHei_MSFontService,sans-serif" font-weight="400" font-size="83" transform="matrix(1 0 0 1 416.541 1085)">精确值<tspan font-size="83" x="701.823" y="-51">模糊值</tspan><tspan font-size="83" x="1455.21" y="-77">模糊值</tspan><tspan font-size="83" x="2339.22" y="0">精确值</tspan></text></g></svg>